<?xml version="1.0" ?><!DOCTYPE svg  PUBLIC '-//W3C//DTD SVG 1.1//EN'  'http://www.w3.org/Graphics/SVG/1.1/DTD/svg11.dtd'><svg enable-background="new 0 0 100 100" height="100px" id="Layer_1" version="1.1" viewBox="0 0 100 100" width="100px" xml:space="preserve" xmlns="http://www.w3.org/2000/svg" xmlns:xlink="http://www.w3.org/1999/xlink"><g><path d="M70.98,5H29.02C26.8,5,25,6.8,25,9.02V90.98C25,93.2,26.8,95,29.02,95H70.98C73.2,95,75,93.2,75,90.98V9.02   C75,6.8,73.2,5,70.98,5z M43.5,9h13c0.552,0,1,0.448,1,1v0c0,0.552-0.448,1-1,1h-13c-0.552,0-1-0.448-1-1v0   C42.5,9.448,42.948,9,43.5,9z M50,93c-1.657,0-3-1.343-3-3s1.343-3,3-3s3,1.343,3,3S51.657,93,50,93z M72.5,85h-45V15h45V85z"/><g><g><path d="M46.607,49.155C46.986,47.631,48.359,46.5,50,46.5c1.639,0,3.011,1.129,3.392,2.65c6.492,0.101,12.172,0.51,12.348,1.236     c0.003-0.129,0.01-0.257,0.01-0.387c0-8.698-7.052-15.75-15.75-15.75S34.25,41.302,34.25,50c0,0.13,0.007,0.258,0.01,0.387     C34.436,49.678,40.116,49.264,46.607,49.155z"/><path d="M45.484,52.671c0.927,1.567,2.63,2.579,4.516,2.579c1.883,0,3.585-1.009,4.513-2.573c4.85,0.109,7.673,0.358,9.103,0.573     C62.139,59.473,56.529,64,50,64c-6.533,0-12.145-4.532-13.619-10.761C37.806,53.023,40.627,52.775,45.484,52.671 M46.621,50.9     c-6.035,0.093-11.371,0.453-12.242,1.086C35.356,59.746,41.975,65.75,50,65.75c8.024,0,14.642-6.002,15.62-13.76     c-0.873-0.62-6.209-0.984-12.243-1.085C52.978,52.398,51.62,53.5,50,53.5C48.379,53.5,47.019,52.396,46.621,50.9L46.621,50.9z"/></g><circle cx="50" cy="50" r="2.45"/></g></g></svg>